PathFileType	3	(X/Y/Z)	walking_3__fused_aligned.trc
DataRate	CameraRate	NumFrames	NumMarkers	Units	OrigDataRate	OrigDataStartFrame	OrigNumFrames
100.0	100.0	9	19	mm	100.0	1055	6307
Frame#	Time	pelvis			neck			head			hip_left			hip_right			knee_left			knee_right			ankle_left			ankle_right			heel_left			heel_right			toe_left			toe_right			shoulder_left			shoulder_right			elbow_left			elbow_right			wrist_left			wrist_right			
		X1	Y1	Z1	X2	Y2	Z2	X3	Y3	Z3	X4	Y4	Z4	X5	Y5	Z5	X6	Y6	Z6	X7	Y7	Z7	X8	Y8	Z8	X9	Y9	Z9	X10	Y10	Z10	X11	Y11	Z11	X12	Y12	Z12	X13	Y13	Z13	X14	Y14	Z14	X15	Y15	Z15	X16	Y16	Z16	X17	Y17	Z17	X18	Y18	Z18	X19	Y19	Z19	
1055	10.54000	49.737225	925.090529	174.847125	21.685059	1486.243714	268.044254	15.293013	1570.994537	421.722441	127.461389	929.450988	179.697776	-27.987062	920.730044	169.996610	134.420976	516.596441	344.237934	-85.469822	499.594384	234.838091	145.720440	86.370656	353.574307	-93.067423	220.986005	-71.106599	147.315065	29.399908	327.577706	-87.695628	209.846333	-125.767400	123.563721	66.845456	554.968887	-105.993045	64.146658	8.675026	204.410936	1447.453527	219.974817	-156.612220	1421.582299	233.443524	274.656348	1166.032688	134.729184	-208.807075	1128.527924	252.272752	325.659032	898.382705	127.536324	-181.818367	937.735936	427.334097
1056	10.55000	52.263506	924.831416	174.383707	23.602659	1486.096195	268.179452	16.212802	1570.897269	421.808754	129.964794	929.398050	179.145198	-25.437936	920.264755	169.622367	136.182139	514.507290	336.972512	-83.132433	501.238546	241.913156	146.813215	84.114532	344.858869	-91.136183	223.525870	-62.742352	148.282230	27.118127	318.812547	-85.766889	212.643080	-117.297287	125.216072	64.758192	546.227010	-104.087237	66.282621	16.121690	206.582285	1447.272827	221.381145	-154.287664	1421.400404	232.085536	277.872886	1166.019531	137.815568	-205.736810	1128.368259	248.234641	327.686314	899.134636	133.550009	-180.630954	935.628710	418.452559
1057	10.56000	54.789788	924.572304	173.920288	25.520258	1485.948677	268.314650	17.132590	1570.800000	421.895066	132.468200	929.345112	178.592620	-22.888810	919.799467	169.248123	137.943301	512.418139	329.707091	-80.795044	502.882708	248.988221	147.905989	81.858408	336.143431	-89.204943	226.065734	-54.378105	149.249394	24.836347	310.047389	-83.838149	215.439827	-108.827173	126.868423	62.670929	537.485132	-102.181429	68.418585	23.568354	208.753634	1447.092127	222.787473	-151.963108	1421.218510	230.727547	281.089425	1166.006374	140.901952	-202.666545	1128.208595	244.196530	329.713595	899.886567	139.563694	-179.443542	933.521483	409.571022
1058	10.57000	54.968312	924.564596	174.095908	24.747236	1485.833108	268.973730	15.525060	1570.641601	422.373707	132.695545	929.504716	178.694133	-22.759088	919.624450	169.497833	137.671708	510.966820	321.271416	-80.325137	504.665906	257.484003	147.081935	81.452980	320.858604	-88.940803	226.312841	-38.403214	148.307461	24.831615	293.983907	-83.647240	215.151591	-92.197814	126.871271	59.788009	521.993871	-101.783942	70.547092	40.780852	208.204285	1447.165259	225.061546	-152.223983	1420.963452	229.599226	282.441701	1166.299163	145.999952	-201.917064	1128.014752	239.224731	329.698121	902.001865	150.546336	-181.328462	930.389487	397.960684
1059	10.58000	55.146836	924.556888	174.271527	23.974215	1485.717539	269.632810	13.917531	1570.483201	422.852349	132.922890	929.664320	178.795647	-22.629365	919.449432	169.747542	137.400115	509.515501	312.835741	-79.855230	506.449105	265.979786	146.257881	81.047551	305.573777	-88.676662	226.559948	-22.428324	147.365527	24.826883	277.920424	-83.456331	214.863356	-75.568455	126.874118	56.905089	506.502611	-101.386455	72.675598	57.993351	207.654937	1447.238390	227.335620	-152.484859	1420.708395	228.470905	283.793978	1166.591952	151.097952	-201.167583	1127.820908	234.252932	329.682648	904.117162	161.528977	-183.213382	927.257490	386.350347
1060	10.59000	55.325360	924.549180	174.447147	23.201193	1485.601970	270.291891	12.310001	1570.324801	423.330990	133.150235	929.823923	178.897160	-22.499642	919.274415	169.997252	137.128523	508.064182	304.400066	-79.385323	508.232303	274.475568	145.433826	80.642123	290.288950	-88.412522	226.807055	-6.453434	146.423594	24.822150	261.856942	-83.265421	214.575120	-58.939095	126.876966	54.022170	491.011350	-100.988967	74.804104	75.205850	207.105589	1447.311521	229.609693	-152.745734	1420.453338	227.342584	285.146255	1166.884741	156.195952	-200.418102	1127.627065	229.281133	329.667174	906.232460	172.511619	-185.098302	924.125494	374.740010
1061	10.60000	55.503885	924.541471	174.622766	22.428171	1485.486401	270.950971	10.702472	1570.166402	423.809632	133.377580	929.983527	178.998673	-22.369920	919.099398	170.246962	136.856930	506.612863	295.964390	-78.915416	510.015502	282.971351	144.609772	80.236694	275.004123	-88.148381	227.054162	9.521456	145.481660	24.817418	245.793460	-83.074512	214.286884	-42.309736	126.879814	51.139250	475.520089	-100.591480	76.932610	92.418348	206.556240	1447.384652	231.883766	-153.006610	1420.198281	226.214263	286.498531	1167.177530	161.293952	-199.668620	1127.433222	224.309333	329.651701	908.347758	183.494261	-186.983222	920.993497	363.129673
1062	10.61000	55.682409	924.533763	174.798386	21.655149	1485.370832	271.610051	9.094942	1570.008002	424.288273	133.604924	930.143131	179.100186	-22.240197	918.924381	170.496671	136.585338	505.161544	287.528715	-78.445509	511.798700	291.467134	143.785717	79.831266	259.719296	-87.884241	227.301269	25.496346	144.539727	24.812686	229.729977	-82.883602	213.998649	-25.680377	126.882662	48.256330	460.028829	-100.193993	79.061116	109.630847	206.006892	1447.457783	234.157839	-153.267485	1419.943224	225.085942	287.850808	1167.470319	166.391952	-198.919139	1127.239379	219.337534	329.636227	910.463055	194.476903	-188.868142	917.861501	351.519336
1063	10.62000	55.860933	924.526055	174.974005	20.882127	1485.255263	272.269132	7.487413	1569.849602	424.766915	133.832269	930.302735	179.201700	-22.110474	918.749364	170.746381	136.313745	503.710225	279.093040	-77.975602	513.581899	299.962916	142.961663	79.425837	244.434469	-87.620100	227.548375	41.471237	143.597793	24.807954	213.666495	-82.692693	213.710413	-9.051017	126.885510	45.373410	444.537568	-99.796505	81.189623	126.843345	205.457544	1447.530915	236.431912	-153.528360	1419.688167	223.957621	289.203085	1167.763109	171.489952	-198.169658	1127.045536	214.365735	329.620754	912.578353	205.459545	-190.753063	914.729504	339.908998
